<svg xmlns="http://www.w3.org/2000/svg" width="149.625" height="64.05" viewBox="0 0 149.625 64.05">
  <path id="Path_1" data-name="Path 1" d="M11.97.405A4.046,4.046,0,0,1,8.1-2.385l-6.8-15.66a3.383,3.383,0,0,1-.045-3.083q.72-1.327,2.97-1.327a3.259,3.259,0,0,1,1.98.562,4.6,4.6,0,0,1,1.35,2.138L12.2-8.055,16.965-19.8a4.854,4.854,0,0,1,1.4-2.093,3.507,3.507,0,0,1,2.115-.562,2.54,2.54,0,0,1,2.43,1.327,3.218,3.218,0,0,1-.09,3.038l-6.93,15.7A4.022,4.022,0,0,1,11.97.405ZM38.25.5A14.8,14.8,0,0,1,31.523-.923,10.158,10.158,0,0,1,27.2-4.928a11.9,11.9,0,0,1-1.507-6.1,12,12,0,0,1,1.462-6.008,10.6,10.6,0,0,1,4.005-4.05,11.567,11.567,0,0,1,5.873-1.463,9.96,9.96,0,0,1,7.65,3.038A11.556,11.556,0,0,1,47.52-11.3q0,1.71-2.115,1.71H32.175a5.5,5.5,0,0,0,1.912,3.8,6.9,6.9,0,0,0,4.3,1.192,13.978,13.978,0,0,0,2.452-.247,9.712,9.712,0,0,0,2.632-.878,2.65,2.65,0,0,1,2.205-.248A2.174,2.174,0,0,1,46.913-4.68a2.667,2.667,0,0,1,0,1.868,2.972,2.972,0,0,1-1.507,1.6A13.393,13.393,0,0,1,41.918.068,16.812,16.812,0,0,1,38.25.5Zm-.945-18.54a4.761,4.761,0,0,0-3.487,1.305A6.071,6.071,0,0,0,32.175-13.1H41.9Q41.625-18.045,37.305-18.045ZM54.405.315a2.889,2.889,0,0,1-2.025-.7,2.37,2.37,0,0,1-.787-1.778,3.435,3.435,0,0,1,.877-2.205l5.715-7.02-5.22-6.39a3.4,3.4,0,0,1-.9-2.25,2.371,2.371,0,0,1,.81-1.755,2.949,2.949,0,0,1,2.025-.675,4.508,4.508,0,0,1,2.025.4,4.518,4.518,0,0,1,1.53,1.35l3.6,4.68L65.7-20.7a4.518,4.518,0,0,1,1.53-1.35,4.508,4.508,0,0,1,2.025-.4,2.889,2.889,0,0,1,2.025.7,2.37,2.37,0,0,1,.788,1.778,3.35,3.35,0,0,1-.923,2.205l-5.22,6.39,5.76,7.02a3.243,3.243,0,0,1,.9,2.205,2.412,2.412,0,0,1-.832,1.778,2.973,2.973,0,0,1-2.048.7,4.338,4.338,0,0,1-2-.428A4.867,4.867,0,0,1,66.15-1.44l-4.1-5.22-4.14,5.22A5.7,5.7,0,0,1,56.408-.135,4,4,0,0,1,54.405.315ZM13.455,41.5Q4.14,41.5,4.14,32.46V24H2.25Q-.4,24-.405,21.48q0-2.565,2.655-2.565H4.14v-3.42q0-3.465,3.42-3.465,3.375,0,3.375,3.465v3.42H15.21a2.287,2.287,0,0,1,2.61,2.565q0,2.52-2.61,2.52H10.935v8.19a4.037,4.037,0,0,0,.878,2.835,3.679,3.679,0,0,0,2.813.945,5.6,5.6,0,0,0,1.26-.135,8.093,8.093,0,0,1,1.08-.18,1.205,1.205,0,0,1,1.035.4,2.918,2.918,0,0,1,.405,1.845,4.581,4.581,0,0,1-.36,1.912,2.219,2.219,0,0,1-1.26,1.148,8.068,8.068,0,0,1-1.6.382A11.534,11.534,0,0,1,13.455,41.5Zm12.105-.09q-3.42,0-3.42-3.465v-25.6q0-3.465,3.42-3.465,3.375,0,3.375,3.465V21.93a7.5,7.5,0,0,1,3.015-2.587,9.413,9.413,0,0,1,4.1-.878q7.785,0,7.785,9.27V37.95q0,3.465-3.42,3.465a3.329,3.329,0,0,1-2.5-.9,3.523,3.523,0,0,1-.877-2.565v-9.9a5.115,5.115,0,0,0-.855-3.308,3.113,3.113,0,0,0-2.52-1.012,4.524,4.524,0,0,0-3.442,1.35,5.011,5.011,0,0,0-1.283,3.6v9.27Q28.935,41.415,25.56,41.415Zm35.505.09a14.8,14.8,0,0,1-6.727-1.417,10.158,10.158,0,0,1-4.32-4.005,11.9,11.9,0,0,1-1.507-6.1,12,12,0,0,1,1.463-6.007,10.6,10.6,0,0,1,4.005-4.05,11.567,11.567,0,0,1,5.873-1.463A9.96,9.96,0,0,1,67.5,21.5a11.556,11.556,0,0,1,2.835,8.212q0,1.71-2.115,1.71H54.99a5.5,5.5,0,0,0,1.912,3.8,6.9,6.9,0,0,0,4.3,1.193,13.977,13.977,0,0,0,2.452-.248,9.712,9.712,0,0,0,2.632-.877,2.65,2.65,0,0,1,2.205-.248,2.174,2.174,0,0,1,1.238,1.283,2.667,2.667,0,0,1,0,1.868,2.972,2.972,0,0,1-1.508,1.6,13.393,13.393,0,0,1-3.487,1.283A16.812,16.812,0,0,1,61.065,41.5Zm-.945-18.54a4.761,4.761,0,0,0-3.487,1.305,6.071,6.071,0,0,0-1.642,3.645h9.72Q64.44,22.965,60.12,22.965Zm18.36,18.45q-3.42,0-3.42-3.465V21.975q0-3.42,3.33-3.42t3.33,3.42v.135a7.074,7.074,0,0,1,2.723-2.677,8.124,8.124,0,0,1,4.027-.968A7.321,7.321,0,0,1,92.452,19.5a6.422,6.422,0,0,1,2.5,3.15,7.408,7.408,0,0,1,2.993-3.083,8.7,8.7,0,0,1,4.342-1.1,6.817,6.817,0,0,1,5.625,2.273q1.845,2.273,1.845,7V37.95a3.523,3.523,0,0,1-.878,2.565,3.329,3.329,0,0,1-2.5.9q-3.42,0-3.42-3.465V27.96a5.784,5.784,0,0,0-.7-3.218A2.662,2.662,0,0,0,99.9,23.73a3.644,3.644,0,0,0-3.015,1.35,5.986,5.986,0,0,0-1.08,3.825V37.95q0,3.465-3.375,3.465a3.407,3.407,0,0,1-2.52-.9,3.47,3.47,0,0,1-.9-2.565V27.96a5.638,5.638,0,0,0-.72-3.218,2.672,2.672,0,0,0-2.34-1.012,3.644,3.644,0,0,0-3.015,1.35,5.986,5.986,0,0,0-1.08,3.825V37.95Q81.855,41.415,78.48,41.415Zm48.645.09a14.8,14.8,0,0,1-6.728-1.417,10.158,10.158,0,0,1-4.32-4.005,11.9,11.9,0,0,1-1.507-6.1,12,12,0,0,1,1.463-6.007,10.6,10.6,0,0,1,4-4.05,11.567,11.567,0,0,1,5.873-1.463,9.96,9.96,0,0,1,7.65,3.038,11.556,11.556,0,0,1,2.835,8.212q0,1.71-2.115,1.71H121.05a5.5,5.5,0,0,0,1.912,3.8,6.9,6.9,0,0,0,4.3,1.193,13.977,13.977,0,0,0,2.452-.248,9.712,9.712,0,0,0,2.633-.877,2.65,2.65,0,0,1,2.205-.248,2.174,2.174,0,0,1,1.238,1.283,2.667,2.667,0,0,1,0,1.868,2.972,2.972,0,0,1-1.508,1.6,13.393,13.393,0,0,1-3.488,1.283A16.811,16.811,0,0,1,127.125,41.5Zm-.945-18.54a4.761,4.761,0,0,0-3.487,1.305,6.071,6.071,0,0,0-1.643,3.645h9.72Q130.5,22.965,126.18,22.965Zm18.79,18.3a4.081,4.081,0,0,1-4.35-4.3,4.094,4.094,0,0,1,1.175-3.025,4.29,4.29,0,0,1,3.175-1.175,4.121,4.121,0,0,1,3.125,1.175,4.194,4.194,0,0,1,1.125,3.025,4.35,4.35,0,0,1-1.125,3.1A4.075,4.075,0,0,1,144.97,41.26Z" transform="translate(0.405 22.545)" fill="#fff"/>
</svg>
